<?xml version="1.0" encoding="UTF-8" standalone="no"?>
<!-- Created with Inkscape (http://www.inkscape.org/) -->
<svg
   xmlns:dc="http://purl.org/dc/elements/1.1/"
   xmlns:cc="http://creativecommons.org/ns#"
   xmlns:rdf="http://www.w3.org/1999/02/22-rdf-syntax-ns#"
   xmlns:svg="http://www.w3.org/2000/svg"
   xmlns="http://www.w3.org/2000/svg"
   xmlns:xlink="http://www.w3.org/1999/xlink"
   xmlns:sodipodi="http://sodipodi.sourceforge.net/DTD/sodipodi-0.dtd"
   xmlns:inkscape="http://www.inkscape.org/namespaces/inkscape"
   version="1.0"
   width="400"
   height="360"
   id="svg2"
   sodipodi:version="0.32"
   inkscape:version="0.46"
   sodipodi:docname="P history.svg"
   inkscape:output_extension="org.inkscape.output.svg.inkscape">
  <metadata
     id="metadata11">
    <rdf:RDF>
      <cc:Work
         rdf:about="">
        <dc:format>image/svg+xml</dc:format>
        <dc:type
           rdf:resource="http://purl.org/dc/dcmitype/StillImage" />
      </cc:Work>
    </rdf:RDF>
  </metadata>
  <sodipodi:namedview
     inkscape:window-height="667"
     inkscape:window-width="753"
     inkscape:pageshadow="2"
     inkscape:pageopacity="0.0"
     guidetolerance="10.0"
     gridtolerance="10.0"
     objecttolerance="10.0"
     borderopacity="1.0"
     bordercolor="#666666"
     pagecolor="#ffffff"
     id="base"
     showgrid="false"
     inkscape:zoom="1.3686861"
     inkscape:cx="139.93604"
     inkscape:cy="198.54679"
     inkscape:window-x="88"
     inkscape:window-y="67"
     inkscape:current-layer="svg2"
     showguides="true"
     inkscape:guide-bbox="true" />
  <defs
     id="defs4">
    <inkscape:perspective
       sodipodi:type="inkscape:persp3d"
       inkscape:vp_x="0 : 180 : 1"
       inkscape:vp_y="0 : 1000 : 0"
       inkscape:vp_z="400 : 180 : 1"
       inkscape:persp3d-origin="200 : 120 : 1"
       id="perspective13" />
    <linearGradient
       x1="92.604424"
       y1="304.50995"
       x2="263.82959"
       y2="26.290426"
       id="linearGradient3199"
       xlink:href="#linearGradient2889"
       gradientUnits="userSpaceOnUse" />
    <linearGradient
       id="linearGradient2889">
      <stop
         style="stop-color:#a0a3e1;stop-opacity:1"
         offset="0"
         id="stop2891" />
      <stop
         style="stop-color:#dedcfa;stop-opacity:1"
         offset="1"
         id="stop2893" />
    </linearGradient>
    <radialGradient
       gradientTransform="matrix(1,0,0,0.858246,0,66.52839)"
       gradientUnits="userSpaceOnUse"
       xlink:href="#linearGradient2495"
       id="radialGradient3045"
       fy="506.0903"
       fx="341.7045"
       r="106.82813"
       cy="506.0903"
       cx="341.7045" />
    <radialGradient
       gradientTransform="matrix(1.304169,0,0,1.397324,-159.1821,-2.783708)"
       gradientUnits="userSpaceOnUse"
       xlink:href="#linearGradient2210"
       id="radialGradient3043"
       fy="6.7292361"
       fx="523.80261"
       r="4.5319548"
       cy="6.7292361"
       cx="523.80261" />
    <linearGradient
       spreadMethod="reflect"
       gradientUnits="userSpaceOnUse"
       xlink:href="#linearGradient2291"
       id="linearGradient2795"
       y2="525.92352"
       x2="489.24524"
       y1="525.92352"
       x1="256.5722" />
    <linearGradient
       gradientTransform="matrix(0,-1,-1,0,1044.671,778.9887)"
       gradientUnits="userSpaceOnUse"
       xlink:href="#linearGradient2461"
       id="linearGradient2793"
       y2="581.60553"
       x2="294.61395"
       y1="581.60553"
       x1="249.64531" />
    <linearGradient
       gradientTransform="matrix(0,-1,1,0,-300.5951,778.9887)"
       gradientUnits="userSpaceOnUse"
       xlink:href="#linearGradient2461"
       id="linearGradient2791"
       y2="581.60553"
       x2="294.61395"
       y1="581.60553"
       x1="249.64531" />
    <linearGradient
       gradientUnits="userSpaceOnUse"
       xlink:href="#linearGradient2495"
       id="linearGradient2501"
       y2="475.67346"
       x2="480.52078"
       y1="475.67346"
       x1="268.34482" />
    <linearGradient
       gradientTransform="matrix(0,-1,-1,0,1044.671,778.9887)"
       gradientUnits="userSpaceOnUse"
       xlink:href="#linearGradient2461"
       id="linearGradient2475"
       y2="581.60553"
       x2="294.61395"
       y1="581.60553"
       x1="249.64531" />
    <linearGradient
       gradientTransform="matrix(0,-1,1,0,-300.5951,778.9887)"
       gradientUnits="userSpaceOnUse"
       xlink:href="#linearGradient2461"
       id="linearGradient2467"
       y2="581.60553"
       x2="294.61395"
       y1="581.60553"
       x1="249.64531" />
    <linearGradient
       spreadMethod="reflect"
       gradientUnits="userSpaceOnUse"
       xlink:href="#linearGradient2291"
       id="linearGradient2297"
       y2="525.92352"
       x2="489.24524"
       y1="525.92352"
       x1="256.5722" />
    <radialGradient
       gradientTransform="matrix(1,0,0,1.071429,0,-0.480661)"
       gradientUnits="userSpaceOnUse"
       xlink:href="#linearGradient2210"
       id="radialGradient2243"
       fy="6.7292385"
       fx="523.80286"
       r="4.5319548"
       cy="6.7292385"
       cx="523.80286" />
    <radialGradient
       gradientTransform="matrix(1,0,0,1.071429,0,-0.480661)"
       gradientUnits="userSpaceOnUse"
       xlink:href="#linearGradient2210"
       id="radialGradient2216"
       fy="6.7292385"
       fx="523.80286"
       r="4.5319548"
       cy="6.7292385"
       cx="523.80286" />
    <linearGradient
       id="linearGradient2210">
      <stop
         id="stop2212"
         offset="0"
         style="stop-color:#15caff;stop-opacity:1" />
      <stop
         id="stop2249"
         offset="1"
         style="stop-color:#0065bf;stop-opacity:0.74901962" />
      <stop
         id="stop2251"
         offset="1"
         style="stop-color:#0052ff;stop-opacity:0.62352943" />
      <stop
         id="stop2259"
         offset="1"
         style="stop-color:#0374f2;stop-opacity:0.59215689" />
      <stop
         id="stop2253"
         offset="1"
         style="stop-color:#07daff;stop-opacity:0.56078434" />
      <stop
         id="stop2255"
         offset="1"
         style="stop-color:#0b8cd9;stop-opacity:0.52941173" />
      <stop
         id="stop2257"
         offset="1"
         style="stop-color:#0d86d3;stop-opacity:0.51372552" />
      <stop
         id="stop2218"
         offset="1"
         style="stop-color:#0f81cd;stop-opacity:0.49803922" />
      <stop
         id="stop2214"
         offset="1"
         style="stop-color:#0f76b1;stop-opacity:0" />
    </linearGradient>
    <linearGradient
       id="linearGradient2291">
      <stop
         id="stop2301"
         offset="0"
         style="stop-color:#ffffff;stop-opacity:1" />
      <stop
         id="stop2305"
         offset="0.5"
         style="stop-color:#ffc000;stop-opacity:1" />
      <stop
         id="stop2295"
         offset="1"
         style="stop-color:#ffffff;stop-opacity:1" />
    </linearGradient>
    <linearGradient
       id="linearGradient2441">
      <stop
         id="stop2443"
         offset="0"
         style="stop-color:#000000;stop-opacity:1" />
      <stop
         id="stop2459"
         offset="1"
         style="stop-color:#ffffff;stop-opacity:1" />
      <stop
         id="stop2449"
         offset="1"
         style="stop-color:#ffffff;stop-opacity:1" />
    </linearGradient>
    <linearGradient
       id="linearGradient2461">
      <stop
         id="stop2463"
         offset="0"
         style="stop-color:#ffffff;stop-opacity:1" />
      <stop
         id="stop2471"
         offset="0.55000001"
         style="stop-color:#7f7f7f;stop-opacity:1" />
      <stop
         id="stop2465"
         offset="1"
         style="stop-color:#000000;stop-opacity:1" />
    </linearGradient>
    <linearGradient
       id="linearGradient2495">
      <stop
         id="stop2497"
         offset="0"
         style="stop-color:#ffffff;stop-opacity:1" />
      <stop
         id="stop2527"
         offset="0.34999999"
         style="stop-color:#dcdcdc;stop-opacity:1" />
      <stop
         id="stop2499"
         offset="1"
         style="stop-color:#828282;stop-opacity:1" />
    </linearGradient>
    <inkscape:perspective
       id="perspective298"
       inkscape:persp3d-origin="372.04724 : 329.16667 : 1"
       inkscape:vp_z="744.09448 : 493.75 : 1"
       inkscape:vp_y="0 : 1000 : 0"
       inkscape:vp_x="0 : 493.75 : 1"
       sodipodi:type="inkscape:persp3d" />
    <radialGradient
       gradientTransform="matrix(1,0,0,0.858246,0,66.52839)"
       gradientUnits="userSpaceOnUse"
       xlink:href="#linearGradient2495"
       id="radialGradient3248"
       fy="506.0903"
       fx="341.7045"
       r="106.82813"
       cy="506.0903"
       cx="341.7045" />
    <radialGradient
       gradientTransform="matrix(1.304169,0,0,1.397324,-159.1821,-2.783708)"
       gradientUnits="userSpaceOnUse"
       xlink:href="#linearGradient2210"
       id="radialGradient3246"
       fy="6.7292361"
       fx="523.80261"
       r="4.5319548"
       cy="6.7292361"
       cx="523.80261" />
    <linearGradient
       spreadMethod="reflect"
       gradientUnits="userSpaceOnUse"
       xlink:href="#linearGradient2291"
       id="linearGradient3244"
       y2="525.92352"
       x2="489.24524"
       y1="525.92352"
       x1="256.5722" />
    <linearGradient
       gradientTransform="matrix(0,-1,-1,0,1044.671,778.9887)"
       gradientUnits="userSpaceOnUse"
       xlink:href="#linearGradient2461"
       id="linearGradient3242"
       y2="581.60553"
       x2="294.61395"
       y1="581.60553"
       x1="249.64531" />
    <linearGradient
       gradientTransform="matrix(0,-1,1,0,-300.5951,778.9887)"
       gradientUnits="userSpaceOnUse"
       xlink:href="#linearGradient2461"
       id="linearGradient3240"
       y2="581.60553"
       x2="294.61395"
       y1="581.60553"
       x1="249.64531" />
    <linearGradient
       gradientUnits="userSpaceOnUse"
       xlink:href="#linearGradient2495"
       id="linearGradient3238"
       y2="475.67346"
       x2="480.52078"
       y1="475.67346"
       x1="268.34482" />
    <linearGradient
       gradientTransform="matrix(0,-1,-1,0,1044.671,778.9887)"
       gradientUnits="userSpaceOnUse"
       xlink:href="#linearGradient2461"
       id="linearGradient3236"
       y2="581.60553"
       x2="294.61395"
       y1="581.60553"
       x1="249.64531" />
    <linearGradient
       gradientTransform="matrix(0,-1,1,0,-300.5951,778.9887)"
       gradientUnits="userSpaceOnUse"
       xlink:href="#linearGradient2461"
       id="linearGradient3234"
       y2="581.60553"
       x2="294.61395"
       y1="581.60553"
       x1="249.64531" />
    <linearGradient
       spreadMethod="reflect"
       gradientUnits="userSpaceOnUse"
       xlink:href="#linearGradient2291"
       id="linearGradient3232"
       y2="525.92352"
       x2="489.24524"
       y1="525.92352"
       x1="256.5722" />
    <radialGradient
       gradientTransform="matrix(1,0,0,1.071429,0,-0.480661)"
       gradientUnits="userSpaceOnUse"
       xlink:href="#linearGradient2210"
       id="radialGradient3230"
       fy="6.7292385"
       fx="523.80286"
       r="4.5319548"
       cy="6.7292385"
       cx="523.80286" />
    <radialGradient
       gradientTransform="matrix(1,0,0,1.071429,0,-0.480661)"
       gradientUnits="userSpaceOnUse"
       xlink:href="#linearGradient2210"
       id="radialGradient3228"
       fy="6.7292385"
       fx="523.80286"
       r="4.5319548"
       cy="6.7292385"
       cx="523.80286" />
    <linearGradient
       id="linearGradient3208">
      <stop
         id="stop3210"
         offset="0"
         style="stop-color:#15caff;stop-opacity:1" />
      <stop
         id="stop3212"
         offset="1"
         style="stop-color:#0065bf;stop-opacity:0.74901962" />
      <stop
         id="stop3214"
         offset="1"
         style="stop-color:#0052ff;stop-opacity:0.62352943" />
      <stop
         id="stop3216"
         offset="1"
         style="stop-color:#0374f2;stop-opacity:0.59215689" />
      <stop
         id="stop3218"
         offset="1"
         style="stop-color:#07daff;stop-opacity:0.56078434" />
      <stop
         id="stop3220"
         offset="1"
         style="stop-color:#0b8cd9;stop-opacity:0.52941173" />
      <stop
         id="stop3222"
         offset="1"
         style="stop-color:#0d86d3;stop-opacity:0.51372552" />
      <stop
         id="stop3224"
         offset="1"
         style="stop-color:#0f81cd;stop-opacity:0.49803922" />
      <stop
         id="stop3226"
         offset="1"
         style="stop-color:#0f76b1;stop-opacity:0" />
    </linearGradient>
    <linearGradient
       id="linearGradient3200">
      <stop
         id="stop3202"
         offset="0"
         style="stop-color:#ffffff;stop-opacity:1" />
      <stop
         id="stop3204"
         offset="0.5"
         style="stop-color:#ffc000;stop-opacity:1" />
      <stop
         id="stop3206"
         offset="1"
         style="stop-color:#ffffff;stop-opacity:1" />
    </linearGradient>
    <linearGradient
       id="linearGradient3191">
      <stop
         id="stop3193"
         offset="0"
         style="stop-color:#000000;stop-opacity:1" />
      <stop
         id="stop3195"
         offset="1"
         style="stop-color:#ffffff;stop-opacity:1" />
      <stop
         id="stop3197"
         offset="1"
         style="stop-color:#ffffff;stop-opacity:1" />
    </linearGradient>
    <linearGradient
       id="linearGradient3183">
      <stop
         id="stop3185"
         offset="0"
         style="stop-color:#ffffff;stop-opacity:1" />
      <stop
         id="stop3187"
         offset="0.55000001"
         style="stop-color:#7f7f7f;stop-opacity:1" />
      <stop
         id="stop3189"
         offset="1"
         style="stop-color:#000000;stop-opacity:1" />
    </linearGradient>
    <linearGradient
       id="linearGradient3175">
      <stop
         id="stop3177"
         offset="0"
         style="stop-color:#ffffff;stop-opacity:1" />
      <stop
         id="stop3179"
         offset="0.34999999"
         style="stop-color:#dcdcdc;stop-opacity:1" />
      <stop
         id="stop3181"
         offset="1"
         style="stop-color:#828282;stop-opacity:1" />
    </linearGradient>
    <inkscape:perspective
       id="perspective3173"
       inkscape:persp3d-origin="372.04724 : 329.16667 : 1"
       inkscape:vp_z="744.09448 : 493.75 : 1"
       inkscape:vp_y="0 : 1000 : 0"
       inkscape:vp_x="0 : 493.75 : 1"
       sodipodi:type="inkscape:persp3d" />
    <linearGradient
       inkscape:collect="always"
       xlink:href="#linearGradient2889"
       id="linearGradient3701"
       gradientUnits="userSpaceOnUse"
       x1="92.604424"
       y1="304.50995"
       x2="263.82959"
       y2="26.290426"
       gradientTransform="matrix(0.851641,-0.524127,0.524127,0.851641,-45.27941,132.512)" />
    <inkscape:perspective
       id="perspective3983"
       inkscape:persp3d-origin="83.434425 : 201.59334 : 1"
       inkscape:vp_z="166.86885 : 302.39001 : 1"
       inkscape:vp_y="0 : 1000 : 0"
       inkscape:vp_x="0 : 302.39001 : 1"
       sodipodi:type="inkscape:persp3d" />
  </defs>
  <path
     id="path2869"
     style="fill:url(#linearGradient3701);fill-opacity:1;stroke:none;stroke-width:3.125;stroke-linecap:butt;stroke-linejoin:round;stroke-miterlimit:4;stroke-dasharray:none;stroke-dashoffset:0;stroke-opacity:1"
     d="M 361.81179,80.415831 C 405.81082,151.90878 369.03348,254.4506 279.6673,309.44939 C 190.30112,364.44819 82.187243,351.07704 38.188207,279.58409 C -5.8108301,208.09114 30.966509,105.54933 120.33269,50.550529 C 209.69887,-4.448266 317.81275,8.9228838 361.81179,80.415831 z" />
  <path
     style="fill:#000000;fill-opacity:1;fill-rule:evenodd;stroke:#000000;stroke-width:2.02254152;stroke-linecap:butt;stroke-linejoin:miter;stroke-miterlimit:4;stroke-dasharray:none;stroke-opacity:1"
     d="M 201.30599,5.511628 L 196.97365,6.2708437 L 199.13987,18.550353 L 122.79651,33.338576 L 116.56038,37.530784 L 123.84685,39.313287 L 200.58394,26.967759 L 202.75027,39.247273 L 207.08262,38.488059 L 204.91649,26.10952 C 206.58102,26.179902 207.07919,26.624576 208.75653,26.142525 L 216.79794,32.150251 C 216.95936,35.028241 217.9907,37.271034 219.25948,40.006484 L 231.66619,36.540495 C 230.67751,30.172225 227.63404,29.233622 228.38388,23.336728 C 231.72436,23.894945 234.2655,21.84268 235.30925,18.715399 C 237.75384,17.017834 237.57251,15.660756 234.78414,14.853301 C 232.8805,11.434084 229.10715,10.812812 225.98796,12.740692 C 225.46342,10.690683 224.60965,9.3763413 222.8043,8.6145127 C 219.34354,13.544818 224.74717,12.645514 219.22662,8.8455817 C 219.08318,8.8103607 218.94037,8.8677357 218.8001,8.8785927 C 215.12169,14.234843 221.49818,15.37206 214.89433,9.7038283 C 214.82299,9.7062013 214.76551,9.7168033 214.69731,9.7368313 C 211.01931,14.824901 217.25007,15.417101 210.85726,11.783422 C 209.95563,12.048296 209.60892,13.700109 209.93808,15.71154 C 206.93927,15.871245 206.20757,15.925336 203.47226,17.857152 L 201.30599,5.511628 z M 219.19382,40.270567 C 219.19553,43.673439 219.7201,47.740197 221.26167,51.09766 C 233.49578,47.020833 240.32717,49.925377 231.89581,36.474475 L 219.19382,40.270567 z M 223.16526,61.66068 C 235.47667,57.654249 245.87421,61.147927 236.5565,46.47634 C 224.8957,50.349488 217.49171,48.042405 223.16526,61.66068 z M 179.61099,38.851153 C 160.74285,52.685724 166.05398,65.688558 172.42294,84.503211 C 189.95621,88.754747 210.99559,105.64628 176.65703,86.252709 C 169.0068,88.616292 163.41671,92.413138 157.58759,97.806043 L 142.75226,95.462347 C 140.83319,95.055252 137.52712,97.210773 136.81145,98.763223 C 126.40171,121.34922 127.25978,156.57017 139.14182,186.76649 C 131.37882,188.71682 124.22714,192.0759 118.46421,198.58377 C 114.22838,204.56965 109.08549,204.84299 103.59592,202.97411 C 84.421705,198.55106 75.175459,205.13454 64.767854,210.89634 C 49.327269,226.03785 53.911987,237.7325 58.105033,248.89029 C 67.20093,266.61092 79.293631,284.81301 70.905499,299.75783 C 109.5391,270.29987 98.112037,257.897 94.340197,241.33112 C 90.122736,232.62038 89.016396,223.68873 92.305251,214.42841 C 95.332072,211.42425 98.390428,208.42815 104.25234,207.82642 C 108.34731,208.53702 112.94262,208.76493 110.35723,215.71571 C 108.18125,230.02056 115.97346,239.91879 120.3351,246.7445 C 124.73762,253.34963 127.15104,261.42717 127.52284,270.18139 C 126.11635,274.68589 122.28731,277.0838 118.497,279.12684 C 110.35151,283.08254 109.75256,288.05165 111.14485,291.4064 C 112.61437,299.33184 115.56515,305.89017 117.80774,313.09364 C 120.76021,322.795 120.49864,332.67928 125.5864,339.60018 C 133.11183,340.45555 131.52325,339.88561 135.23607,345.31077 L 138.48529,353.43109 C 146.96916,354.01967 153.12439,349.97323 157.58759,348.28167 C 148.09265,342.68696 164.40971,345.63731 171.76654,339.03893 C 168.14445,334.68903 162.01627,331.07287 156.47171,327.28758 C 156.38257,324.61464 154.78376,323.36479 152.3689,322.86433 C 148.61477,320.23435 145.07519,316.93462 143.3102,308.5713 C 142.65578,302.38139 142.52963,296.20423 142.88341,290.05305 C 142.85244,286.28548 147.43657,278.44799 156.01222,275.89193 C 168.33154,270.70765 177.68955,258.12949 183.87775,238.82241 C 184.62513,243.16621 185.40541,247.50701 186.33929,251.79513 C 188.68879,259.4248 188.76873,266.24342 184.86245,271.66675 C 179.19149,280.53977 174.57733,293.17426 167.56543,297.41416 C 169.52584,299.67127 171.62438,298.67984 173.67013,298.66846 C 179.55607,297.57476 183.76747,295.3223 184.66543,290.84515 C 183.64872,287.78805 187.95766,285.40797 192.67391,283.05502 C 196.53645,281.53241 199.1799,282.24042 200.94513,284.57339 L 202.15947,288.76573 C 207.71566,287.13314 210.7616,283.78855 211.31677,278.76372 C 215.41034,249.28398 218.24612,243.11598 213.15476,273.68041 C 221.55493,272.54059 227.90633,275.17931 234.8498,276.71725 L 237.01607,272.75605 C 239.72732,267.17241 250.76874,239.66755 256.08538,255.29405 L 266.39149,253.47856 C 266.0467,252.50684 265.70754,251.51913 265.37396,250.54069 C 269.45326,251.59124 272.2065,253.19624 274.59685,254.99695 C 276.86227,255.28177 277.73838,253.11062 276.73025,251.53098 C 273.03348,247.22189 268.28198,244.18413 262.6827,242.1562 C 261.38617,237.92513 260.15852,233.66422 259.00653,229.34853 C 270.31411,217.49135 287.56053,217.34849 303.93953,205.21879 C 313.13517,200.6974 316.38049,203.31775 321.33493,208.78377 L 324.68281,217.89439 C 327.86438,238.62293 337.46988,222.03754 331.67383,240.60492 C 329.47176,246.79919 329.88082,246.39577 327.04601,251.23388 C 325.24095,253.24802 325.15568,255.96143 327.30859,258.59509 C 330.32269,261.70922 333.78819,265.97307 337.38482,265.85708 C 340.68732,260.69048 341.32972,255.70733 337.58169,251.0029 L 342.37369,239.61466 C 346.7894,231.18603 345.67233,225.56859 341.75011,218.12548 C 343.91337,215.66552 345.90499,212.88906 346.90313,207.99151 C 347.34091,204.56724 346.61563,201.47212 345.2292,198.58377 C 340.68485,190.56997 338.22632,182.00696 335.90786,173.39765 C 333.19714,164.7047 325.21006,164.99916 319.43129,168.61132 L 291.72979,183.26747 C 293.77759,164.2207 275.06812,158.08577 299.6071,143.35904 C 305.15863,161.01635 328.91258,155.10342 326.55358,137.08719 L 318.51229,112.13206 C 322.66614,110.86815 324.4036,106.57314 317.98718,92.029388 C 320.3877,89.081602 317.68288,84.770947 317.36354,81.103246 C 313.95194,78.775348 318.35461,73.115958 312.14485,58.623812 C 307.15837,79.264355 307.1157,73.228073 299.24596,57.732557 C 296.42296,62.637243 294.59697,70.935415 291.79549,72.520792 C 248.77745,64.3449 235.46579,110.94387 228.58093,144.1512 C 201.77332,141.72424 216.08827,137.59888 211.15248,117.08359 C 208.12684,112.7326 210.11371,108.58876 204.91649,105.29913 L 215.61632,93.910976 C 219.48413,92.883184 225.14886,90.643961 226.90708,86.648825 C 232.16176,83.637232 237.81092,82.747151 242.39886,78.46249 C 245.81101,78.552801 246.90722,74.651992 246.82977,71.398463 C 245.55443,66.730141 242.63699,58.023556 241.05315,57.006351 L 222.73861,62.023784 C 222.29334,63.739184 222.65767,66.127641 223.88735,67.899475 L 224.14999,68.064516 L 215.18956,73.015926 C 211.59515,72.340473 206.66113,79.669394 206.52467,74.831451 C 198.26438,68.303521 193.96605,76.115301 205.60572,72.190703 C 200.35933,66.397649 211.39889,70.887965 206.45903,65.588806 C 204.97417,63.343627 203.01453,61.462418 200.19004,60.274282 C 199.36819,58.363895 200.3484,56.448328 200.22288,54.431619 L 205.37587,52.913181 C 205.19729,51.141874 204.43512,49.554953 203.53789,47.994784 C 197.59307,41.205425 189.10712,39.824945 179.61099,38.851153 z M 296.85003,136.55904 C 301.17777,143.73222 289.08531,145.79167 282.93363,147.94744 C 282.40999,141.64594 281.26101,134.08383 284.18089,126.68918 C 289.84908,126.41761 287.20955,120.54085 296.85003,136.55904 z M 328.75275,185.149 L 335.28419,208.15661 L 326.2911,194.45769 C 322.10953,188.71166 316.51348,186.82818 309.78168,187.92183 C 315.93697,182.85029 321.88654,178.78513 328.75275,185.149 z M 129.91893,293.81599 C 136.67957,315.41927 137.74224,321.26852 139.73263,326.19834 C 143.63755,328.97287 146.1353,331.05113 147.87243,338.84104 C 151.24867,340.99872 152.94154,342.12562 153.25512,345.04673 C 146.07209,340.14017 142.0835,333.17983 134.57968,328.54202 C 128.20199,314.82406 125.15995,302.77117 129.91893,293.81599 z"
     id="path2470"
     sodipodi:nodetypes="cccccccccccccccccccccccccccccccccccccccsccccccccccccccccccccccccccccccccccccccccccccccccccccccccccccccccccccccccccccccccccccccccccccccccccccccc" />
  <path
     d="M 307.80034,96.262646 C 307.89714,96.234364 307.99393,96.20609 307.80034,96.262646 z"
     style="fill:#000000;fill-opacity:0.75000000000000000;fill-rule:evenodd;stroke:#000000;stroke-width:0.50085508999999995px;stroke-linecap:butt;stroke-linejoin:miter;stroke-opacity:1"
     id="path1364" />
  <path
     d="M 245.93212,172.07523 C 245.89294,172.08667 245.85376,172.09812 245.93212,172.07523 z"
     style="fill:#000000;fill-opacity:0.75000000000000000;fill-rule:evenodd;stroke:#000000;stroke-width:0.50085508999999995px;stroke-linecap:butt;stroke-linejoin:miter;stroke-opacity:1"
     id="path2435" />
  <path
     d="M 210.72088,253.37906 C 210.74516,253.46244 210.76944,253.54583 210.72088,253.37906 z"
     style="fill:#000000;fill-opacity:0.75000000000000000;fill-rule:evenodd;stroke:#000000;stroke-width:0.50085508999999995px;stroke-linecap:butt;stroke-linejoin:miter;stroke-opacity:1"
     id="path2541" />
</svg>
